<?xml version="1.0" encoding="UTF-8" standalone="no"?>
<!DOCTYPE svg PUBLIC "-//W3C//DTD SVG 1.1//EN"
 "http://www.w3.org/Graphics/SVG/1.1/DTD/svg11.dtd">
<!-- Generated by graphviz version 3.0.0 (20220413.0242)
 -->
<!-- Title: inheritancef5edb30dd4 Pages: 1 -->
<svg width="431pt" height="27pt"
 viewBox="0.00 0.00 431.00 27.00" xmlns="http://www.w3.org/2000/svg" xmlns:xlink="http://www.w3.org/1999/xlink">
<g id="graph0" class="graph" transform="scale(1 1) rotate(0) translate(4 23)">
<title>inheritancef5edb30dd4</title>
<!-- HumanReadableContent -->
<g id="node1" class="node">
<title>HumanReadableContent</title>
<g id="a_node1"><a xlink:href="../pyEDAA.ProjectModel/pyEDAA.ProjectModel.html#pyEDAA.ProjectModel.HumanReadableContent" xlink:title="A file type representing human&#45;readable contents." target="_top">
<polygon fill="white" stroke="black" stroke-width="0.5" points="167,-19 0,-19 0,0 167,0 167,-19"/>
<text text-anchor="middle" x="83.5" y="-7" font-family="Vera Sans, DejaVu Sans, Liberation Sans, Arial, Helvetica, sans" font-size="10.00">HumanReadableContent</text>
</a>
</g>
</g>
<!-- TCLContent -->
<g id="node3" class="node">
<title>TCLContent</title>
<g id="a_node3"><a xlink:href="../pyEDAA.ProjectModel/pyEDAA.ProjectModel.html#pyEDAA.ProjectModel.TCLContent" xlink:title="A file type representing content in TCL code." target="_top">
<polygon fill="white" stroke="black" stroke-width="0.5" points="295,-19 203,-19 203,0 295,0 295,-19"/>
<text text-anchor="middle" x="249" y="-7" font-family="Vera Sans, DejaVu Sans, Liberation Sans, Arial, Helvetica, sans" font-size="10.00">TCLContent</text>
</a>
</g>
</g>
<!-- HumanReadableContent&#45;&gt;TCLContent -->
<g id="edge2" class="edge">
<title>HumanReadableContent&#45;&gt;TCLContent</title>
<path fill="none" stroke="black" stroke-width="0.5" d="M167.21,-9.5C177.5,-9.5 187.77,-9.5 197.37,-9.5"/>
<polygon fill="black" stroke="black" stroke-width="0.5" points="197.63,-11.25 202.63,-9.5 197.63,-7.75 197.63,-11.25"/>
</g>
<!-- SDCContent -->
<g id="node2" class="node">
<title>SDCContent</title>
<g id="a_node2"><a xlink:href="../pyEDAA.ProjectModel/pyEDAA.ProjectModel.html#pyEDAA.ProjectModel.SDCContent" xlink:title="A file type representing contents as Synopsys Design Constraints (SDC)." target="_top">
<polygon fill="white" stroke="black" stroke-width="0.5" points="423,-19 331,-19 331,0 423,0 423,-19"/>
<text text-anchor="middle" x="377" y="-7" font-family="Vera Sans, DejaVu Sans, Liberation Sans, Arial, Helvetica, sans" font-size="10.00">SDCContent</text>
</a>
</g>
</g>
<!-- TCLContent&#45;&gt;SDCContent -->
<g id="edge1" class="edge">
<title>TCLContent&#45;&gt;SDCContent</title>
<path fill="none" stroke="black" stroke-width="0.5" d="M295.13,-9.5C304.99,-9.5 315.49,-9.5 325.55,-9.5"/>
<polygon fill="black" stroke="black" stroke-width="0.5" points="325.76,-11.25 330.76,-9.5 325.76,-7.75 325.76,-11.25"/>
</g>
</g>
</svg>
